<mxfile host="Electron" modified="2023-12-26T15:32:49.555Z" agent="Mozilla/5.0 (Macintosh; Intel Mac OS X 10_15_7) AppleWebKit/537.36 (KHTML, like Gecko) draw.io/22.0.3 Chrome/114.0.5735.289 Electron/25.8.4 Safari/537.36" etag="3nSz96o8VUeD4vVs3xR8" version="22.0.3" type="device">
  <diagram name="第 1 页" id="czB_JZjlKgWNLLl2dhiW">
    <mxGraphModel dx="823" dy="568" grid="1" gridSize="10" guides="1" tooltips="1" connect="1" arrows="1" fold="1" page="1" pageScale="1" pageWidth="1169" pageHeight="827" math="0" shadow="0">
      <root>
        <mxCell id="0" />
        <mxCell id="1" parent="0" />
        <mxCell id="xc8m6lr4u1oW1Koqc8dp-1" value="服务器表" style="rounded=0;whiteSpace=wrap;html=1;" vertex="1" parent="1">
          <mxGeometry x="200" y="90" width="120" height="60" as="geometry" />
        </mxCell>
        <mxCell id="xc8m6lr4u1oW1Koqc8dp-2" value="证书表" style="rounded=0;whiteSpace=wrap;html=1;" vertex="1" parent="1">
          <mxGeometry x="460" y="90" width="120" height="60" as="geometry" />
        </mxCell>
        <mxCell id="xc8m6lr4u1oW1Koqc8dp-3" value="主域名表" style="rounded=0;whiteSpace=wrap;html=1;" vertex="1" parent="1">
          <mxGeometry x="720" y="90" width="120" height="60" as="geometry" />
        </mxCell>
        <mxCell id="xc8m6lr4u1oW1Koqc8dp-4" value="id" style="rounded=0;whiteSpace=wrap;html=1;" vertex="1" parent="1">
          <mxGeometry x="200" y="180" width="120" height="60" as="geometry" />
        </mxCell>
        <mxCell id="xc8m6lr4u1oW1Koqc8dp-5" value="id" style="rounded=0;whiteSpace=wrap;html=1;" vertex="1" parent="1">
          <mxGeometry x="720" y="180" width="120" height="60" as="geometry" />
        </mxCell>
        <mxCell id="xc8m6lr4u1oW1Koqc8dp-6" value="id" style="rounded=0;whiteSpace=wrap;html=1;" vertex="1" parent="1">
          <mxGeometry x="460" y="180" width="120" height="60" as="geometry" />
        </mxCell>
        <mxCell id="xc8m6lr4u1oW1Koqc8dp-9" style="edgeStyle=orthogonalEdgeStyle;rounded=0;orthogonalLoop=1;jettySize=auto;html=1;entryX=0;entryY=0.5;entryDx=0;entryDy=0;" edge="1" parent="1" source="xc8m6lr4u1oW1Koqc8dp-7" target="xc8m6lr4u1oW1Koqc8dp-6">
          <mxGeometry relative="1" as="geometry" />
        </mxCell>
        <mxCell id="xc8m6lr4u1oW1Koqc8dp-7" value="ssl_id(str,数组)" style="rounded=0;whiteSpace=wrap;html=1;" vertex="1" parent="1">
          <mxGeometry x="200" y="270" width="120" height="60" as="geometry" />
        </mxCell>
        <mxCell id="xc8m6lr4u1oW1Koqc8dp-10" style="edgeStyle=orthogonalEdgeStyle;rounded=0;orthogonalLoop=1;jettySize=auto;html=1;exitX=1;exitY=0.5;exitDx=0;exitDy=0;entryX=0;entryY=0.5;entryDx=0;entryDy=0;" edge="1" parent="1" source="xc8m6lr4u1oW1Koqc8dp-8" target="xc8m6lr4u1oW1Koqc8dp-5">
          <mxGeometry relative="1" as="geometry" />
        </mxCell>
        <mxCell id="xc8m6lr4u1oW1Koqc8dp-8" value="domain_id" style="rounded=0;whiteSpace=wrap;html=1;" vertex="1" parent="1">
          <mxGeometry x="460" y="270" width="120" height="60" as="geometry" />
        </mxCell>
        <mxCell id="xc8m6lr4u1oW1Koqc8dp-12" style="edgeStyle=orthogonalEdgeStyle;rounded=0;orthogonalLoop=1;jettySize=auto;html=1;entryX=1;entryY=0.5;entryDx=0;entryDy=0;" edge="1" parent="1" source="xc8m6lr4u1oW1Koqc8dp-11" target="xc8m6lr4u1oW1Koqc8dp-4">
          <mxGeometry relative="1" as="geometry">
            <Array as="points">
              <mxPoint x="370" y="390" />
              <mxPoint x="370" y="210" />
            </Array>
          </mxGeometry>
        </mxCell>
        <mxCell id="xc8m6lr4u1oW1Koqc8dp-11" value="server_id" style="rounded=0;whiteSpace=wrap;html=1;" vertex="1" parent="1">
          <mxGeometry x="460" y="360" width="120" height="60" as="geometry" />
        </mxCell>
        <mxCell id="xc8m6lr4u1oW1Koqc8dp-13" value="可空" style="ellipse;shape=cloud;whiteSpace=wrap;html=1;fillColor=#d80073;fontColor=#ffffff;strokeColor=#A50040;" vertex="1" parent="1">
          <mxGeometry x="170" y="250" width="60" height="50" as="geometry" />
        </mxCell>
        <mxCell id="xc8m6lr4u1oW1Koqc8dp-14" value="不可空" style="ellipse;shape=cloud;whiteSpace=wrap;html=1;fillColor=#d80073;fontColor=#ffffff;strokeColor=#A50040;" vertex="1" parent="1">
          <mxGeometry x="430" y="340" width="60" height="50" as="geometry" />
        </mxCell>
        <mxCell id="xc8m6lr4u1oW1Koqc8dp-15" value="不可空" style="ellipse;shape=cloud;whiteSpace=wrap;html=1;fillColor=#d80073;fontColor=#ffffff;strokeColor=#A50040;" vertex="1" parent="1">
          <mxGeometry x="430" y="250" width="60" height="50" as="geometry" />
        </mxCell>
      </root>
    </mxGraphModel>
  </diagram>
</mxfile>
